<svg width="16" height="34" viewBox="0 0 16 34" fill="none" xmlns="http://www.w3.org/2000/svg">
<path d="M10.454 4.41191C9.08595 2.79769 7.89523 1.15824 7.65455 0.817745C7.62922 0.792523 7.59122 0.792523 7.56588 0.817745C7.32521 1.15824 6.14715 2.79769 4.77909 4.41191C-6.96343 19.3056 6.62851 29.3441 6.62851 29.3441L6.74251 29.4197C6.84385 30.9709 7.0972 33.2031 7.0972 33.2031H7.60389H8.11057C8.11057 33.2031 8.36392 30.9835 8.46526 29.4197L8.57926 29.3315C8.59193 29.3441 22.1965 19.3056 10.454 4.41191ZM7.61655 29.1297C7.61655 29.1297 7.00853 28.6126 6.84385 28.3478V28.3226L7.57855 12.1047C7.57855 12.0542 7.65455 12.0542 7.65455 12.1047L8.38925 28.3226V28.3478C8.22458 28.6126 7.61655 29.1297 7.61655 29.1297Z" fill="#00684A"/>
</svg>
