<svg width="696" height="696" viewBox="0 0 696 696" fill="none" xmlns="http://www.w3.org/2000/svg">
<path d="M85.0293 0.00916891C133.795 -0.686127 172.808 38.2504 172.808 86.9211V87.6164C172.808 135.592 211.821 174.528 259.891 174.528H260.587C308.657 174.528 347.67 213.465 347.67 261.44C347.67 309.416 386.683 348.352 434.752 348.352H521.835C617.974 348.352 696 426.225 696 522.176C696 618.127 617.974 696 521.835 696C425.696 696 347.67 618.127 347.67 522.176V433.874C347.67 385.898 308.657 346.962 261.284 346.962H86.4222C38.3527 346.962 0.0361997 308.025 0.0361997 260.05V86.9211C-1.35712 38.9457 37.6564 0.704464 85.0293 0.00916891Z" fill="#F9EBFF"/>
</svg>
